<?xml version="1.0" encoding="UTF-8" standalone="no" ?>
<!DOCTYPE svg PUBLIC "-//W3C//DTD SVG 1.1//EN" "http://www.w3.org/Graphics/SVG/1.1/DTD/svg11.dtd">
<svg xmlns="http://www.w3.org/2000/svg" xmlns:xlink="http://www.w3.org/1999/xlink" version="1.1" width="500" height="160" viewBox="0 5.71 500 160" xml:space="preserve">
<desc>Created with Fabric.js 5.2.4</desc>
<defs>
</defs>
<rect x="0" y="0" width="100%" height="100%" fill="transparent"></rect>
<g transform="matrix(Infinity NaN NaN Infinity 0 0)" id="cba17a28-f61e-442d-ae57-ee4077cb7115"  >
</g>
<g transform="matrix(1 0 0 1 250 80)" id="790bf282-9369-4437-858e-bb489f1d3cc6"  >
<rect style="stroke: none; stroke-width: 1; stroke-dasharray: none; stroke-linecap: butt; stroke-dashoffset: 0; stroke-linejoin: miter; stroke-miterlimit: 4; fill: rgb(255,255,255); fill-rule: nonzero; opacity: 1; visibility: hidden;" vector-effect="non-scaling-stroke"  x="-250" y="-80" rx="0" ry="0" width="500" height="160" />
</g>
<g transform="matrix(0 0 0 0 1117.54 393.45)"  >
<g style=""   >
</g>
</g>
<g transform="matrix(0 0 0 0 1117.54 393.45)"  >
<g style=""   >
</g>
</g>
<g transform="matrix(0 0 0 0 1117.54 393.45)"  >
<g style=""   >
</g>
</g>
<g transform="matrix(0.64 0 0 0.64 294.33 86)"  >
<rect style="stroke: none; stroke-width: 1; stroke-dasharray: none; stroke-linecap: butt; stroke-dashoffset: 0; stroke-linejoin: miter; stroke-miterlimit: 4; fill: rgb(255,255,255); fill-rule: nonzero; opacity: 1; visibility: hidden;" vector-effect="non-scaling-stroke"  x="-540" y="-540" rx="0" ry="0" width="1080" height="1080" />
</g>
<g transform="matrix(0.08 0 0 -0.08 145.51 87)"  >
<path style="stroke: none; stroke-width: 1; stroke-dasharray: none; stroke-linecap: butt; stroke-dashoffset: 0; stroke-linejoin: miter; stroke-miterlimit: 4; fill: rgb(255,255,255); fill-rule: nonzero; opacity: 1;" vector-effect="non-scaling-stroke"  transform=" translate(-1315.78, -763.56)" d="M 1259 1081 C 1124 1054 1012 937 994 802 C 987 744 1004 646 1027 619 C 1034 611 1040 598 1040 592 C 1040 573 1102 509 1116 514 C 1124 517 1127 514 1124 506 C 1118 491 1213 444 1229 454 C 1235 458 1240 456 1240 451 C 1240 430 1387 438 1441 461 C 1468 473 1490 487 1490 492 C 1490 497 1494 499 1498 496 C 1520 483 1620 618 1620 660 C 1620 671 1625 680 1631 680 C 1638 680 1641 707 1638 763 C 1631 922 1542 1036 1393 1075 C 1332 1091 1315 1092 1259 1081 z M 1351 898 L 1372 831 L 1458 828 L 1545 825 L 1477 776 C 1440 748 1410 723 1410 719 C 1410 716 1419 684 1430 650 C 1459 560 1456 555 1403 596 C 1322 658 1317 658 1255 615 C 1225 595 1200 573 1200 567 C 1200 559 1197 559 1189 567 C 1181 575 1184 598 1201 650 L 1224 723 L 1185 754 C 1164 771 1137 790 1126 795 C 1115 801 1105 811 1102 818 C 1099 827 1119 830 1178 830 C 1268 830 1256 819 1296 937 C 1317 998 1321 995 1351 898 z" stroke-linecap="round" />
</g>
<g transform="matrix(0.08 0 0 -0.08 206.12 85.59)"  >
<path style="stroke: none; stroke-width: 1; stroke-dasharray: none; stroke-linecap: butt; stroke-dashoffset: 0; stroke-linejoin: miter; stroke-miterlimit: 4; fill: rgb(255,255,255); fill-rule: nonzero; opacity: 1;" vector-effect="non-scaling-stroke"  transform=" translate(-1881.28, -784.86)" d="M 1815 974 C 1768 948 1749 928 1729 885 C 1693 807 1712 676 1766 628 C 1821 579 1924 566 1996 599 C 2050 624 2057 637 2031 663 C 2011 683 2009 683 1975 667 C 1883 623 1800 679 1800 787 C 1800 891 1885 949 1972 904 C 2003 888 2004 888 2028 915 L 2052 943 L 2019 964 C 1974 992 1858 998 1815 974 z" stroke-linecap="round" />
</g>
<g transform="matrix(0.08 0 0 -0.08 233.49 88.68)"  >
<path style="stroke: none; stroke-width: 1; stroke-dasharray: none; stroke-linecap: butt; stroke-dashoffset: 0; stroke-linejoin: miter; stroke-miterlimit: 4; fill: rgb(255,255,255); fill-rule: nonzero; opacity: 1;" vector-effect="non-scaling-stroke"  transform=" translate(-2202, -727.34)" d="M 2159 870 C 2087 849 2056 802 2057 718 C 2058 635 2115 580 2201 580 C 2291 580 2356 652 2346 742 C 2338 821 2299 860 2220 873 C 2201 876 2173 875 2159 870 z M 2248 792 C 2266 768 2263 680 2243 658 C 2220 633 2175 635 2156 662 C 2147 674 2140 704 2140 728 C 2140 804 2207 844 2248 792 z" stroke-linecap="round" />
</g>
<g transform="matrix(0.08 0 0 -0.08 265.82 88.77)"  >
<path style="stroke: none; stroke-width: 1; stroke-dasharray: none; stroke-linecap: butt; stroke-dashoffset: 0; stroke-linejoin: miter; stroke-miterlimit: 4; fill: rgb(255,255,255); fill-rule: nonzero; opacity: 1;" vector-effect="non-scaling-stroke"  transform=" translate(-2581, -726.32)" d="M 2475 860 C 2447 846 2440 845 2440 856 C 2440 865 2428 870 2405 870 L 2370 870 L 2370 725 L 2370 580 L 2410 580 L 2449 580 L 2452 693 L 2455 805 L 2489 808 C 2509 810 2526 806 2531 798 C 2536 791 2540 739 2540 683 L 2540 580 L 2580 580 L 2620 580 L 2620 683 C 2620 792 2627 810 2667 810 C 2701 810 2710 781 2710 676 L 2710 580 L 2751 580 L 2792 580 L 2788 700 C 2785 813 2784 821 2759 845 C 2726 879 2661 882 2620 852 C 2593 832 2592 832 2575 849 C 2551 876 2514 880 2475 860 z" stroke-linecap="round" />
</g>
<g transform="matrix(0.08 0 0 -0.08 297.74 92.35)"  >
<path style="stroke: none; stroke-width: 1; stroke-dasharray: none; stroke-linecap: butt; stroke-dashoffset: 0; stroke-linejoin: miter; stroke-miterlimit: 4; fill: rgb(255,255,255); fill-rule: nonzero; opacity: 1;" vector-effect="non-scaling-stroke"  transform=" translate(-2955, -684.34)" d="M 2935 860 C 2888 836 2890 836 2890 855 C 2890 865 2879 870 2855 870 L 2820 870 L 2820 680 L 2820 490 L 2860 490 L 2900 490 L 2900 545 C 2900 597 2901 600 2919 590 C 2951 573 3005 578 3034 601 C 3072 631 3090 672 3090 730 C 3090 802 3068 848 3026 865 C 2981 884 2982 884 2935 860 z M 3000 780 C 3014 746 3008 677 2990 655 C 2975 637 2929 635 2912 652 C 2896 668 2896 782 2912 798 C 2919 805 2938 810 2956 810 C 2982 810 2990 804 3000 780 z" stroke-linecap="round" />
</g>
<g transform="matrix(0.08 0 0 -0.08 321.6 88.67)"  >
<path style="stroke: none; stroke-width: 1; stroke-dasharray: none; stroke-linecap: butt; stroke-dashoffset: 0; stroke-linejoin: miter; stroke-miterlimit: 4; fill: rgb(255,255,255); fill-rule: nonzero; opacity: 1;" vector-effect="non-scaling-stroke"  transform=" translate(-3234.61, -727.5)" d="M 3195 871 C 3162 863 3120 839 3120 828 C 3120 812 3154 789 3169 796 C 3209 813 3253 813 3267 794 C 3286 767 3283 750 3258 750 C 3218 750 3161 730 3133 706 C 3100 677 3098 624 3131 598 C 3158 576 3211 575 3252 596 C 3280 611 3284 611 3292 596 C 3297 587 3314 580 3332 580 L 3362 580 L 3358 693 C 3354 806 3346 835 3310 858 C 3285 873 3230 880 3195 871 z M 3280 681 C 3280 659 3245 630 3219 630 C 3210 630 3196 637 3189 646 C 3178 660 3179 665 3199 681 C 3231 707 3280 707 3280 681 z" stroke-linecap="round" />
</g>
<g transform="matrix(0.08 0 0 -0.08 346.04 88.69)"  >
<path style="stroke: none; stroke-width: 1; stroke-dasharray: none; stroke-linecap: butt; stroke-dashoffset: 0; stroke-linejoin: miter; stroke-miterlimit: 4; fill: rgb(255,255,255); fill-rule: nonzero; opacity: 1;" vector-effect="non-scaling-stroke"  transform=" translate(-3521, -727.29)" d="M 3525 872 C 3515 870 3496 861 3484 854 C 3465 841 3462 841 3457 855 C 3453 864 3438 870 3420 870 L 3390 870 L 3390 725 L 3390 580 L 3430 580 L 3470 580 L 3470 683 C 3470 795 3476 810 3522 810 C 3561 810 3570 785 3570 676 L 3570 580 L 3611 580 L 3652 580 L 3648 700 C 3645 812 3643 821 3620 844 C 3593 869 3557 880 3525 872 z" stroke-linecap="round" />
</g>
<g transform="matrix(0.08 0 0 -0.08 369 92.72)"  >
<path style="stroke: none; stroke-width: 1; stroke-dasharray: none; stroke-linecap: butt; stroke-dashoffset: 0; stroke-linejoin: miter; stroke-miterlimit: 4; fill: rgb(255,255,255); fill-rule: nonzero; opacity: 1;" vector-effect="non-scaling-stroke"  transform=" translate(-3790.02, -680)" d="M 3699 738 L 3757 605 L 3728 547 L 3699 489 L 3742 492 L 3784 495 L 3861 675 C 3904 774 3939 858 3939 863 C 3940 867 3923 870 3901 870 C 3863 870 3862 869 3840 808 C 3827 773 3812 734 3807 720 C 3799 697 3795 703 3765 780 L 3733 865 L 3687 868 L 3641 871 L 3699 738 z" stroke-linecap="round" />
</g>
</svg>