<?xml version="1.0" standalone="no"?>
<!DOCTYPE svg PUBLIC "-//W3C//DTD SVG 20010904//EN"
 "http://www.w3.org/TR/2001/REC-SVG-20010904/DTD/svg10.dtd">
<svg version="1.0" xmlns="http://www.w3.org/2000/svg"
 width="600.000000pt" height="152.000000pt" viewBox="0 0 600.000000 152.000000"
 preserveAspectRatio="xMidYMid meet">

<g transform="translate(0.000000,152.000000) scale(0.100000,-0.100000)"
fill="#000000" stroke="none">
<path d="M1259 1081 c-135 -27 -247 -144 -265 -279 -7 -58 10 -156 33 -183 7
-8 13 -21 13 -27 0 -19 62 -83 76 -78 8 3 11 0 8 -8 -6 -15 89 -62 105 -52 6
4 11 2 11 -3 0 -21 147 -13 201 10 27 12 49 26 49 31 0 5 4 7 8 4 22 -13 122
122 122 164 0 11 5 20 11 20 7 0 10 27 7 83 -7 159 -96 273 -245 312 -61 16
-78 17 -134 6z m92 -183 l21 -67 86 -3 87 -3 -68 -49 c-37 -28 -67 -53 -67
-57 0 -3 9 -35 20 -69 29 -90 26 -95 -27 -54 -81 62 -86 62 -148 19 -30 -20
-55 -42 -55 -48 0 -8 -3 -8 -11 0 -8 8 -5 31 12 83 l23 73 -39 31 c-21 17 -48
36 -59 41 -11 6 -21 16 -24 23 -3 9 17 12 76 12 90 0 78 -11 118 107 21 61 25
58 55 -39z"/>
<path d="M1815 974 c-47 -26 -66 -46 -86 -89 -36 -78 -17 -209 37 -257 55 -49
158 -62 230 -29 54 25 61 38 35 64 -20 20 -22 20 -56 4 -92 -44 -175 12 -175
120 0 104 85 162 172 117 31 -16 32 -16 56 11 l24 28 -33 21 c-45 28 -161 34
-204 10z"/>
<path d="M3970 785 l0 -205 115 0 115 0 0 25 c0 24 -2 24 -82 27 l-83 3 -3
171 c-2 168 -3 172 -25 178 -12 3 -25 6 -29 6 -5 0 -8 -92 -8 -205z"/>
<path d="M2159 870 c-72 -21 -103 -68 -102 -152 1 -83 58 -138 144 -138 90 0
155 72 145 162 -8 79 -47 118 -126 131 -19 3 -47 2 -61 -3z m89 -78 c18 -24
15 -112 -5 -134 -23 -25 -68 -23 -87 4 -9 12 -16 42 -16 66 0 76 67 116 108
64z"/>
<path d="M2475 860 c-28 -14 -35 -15 -35 -4 0 9 -12 14 -35 14 l-35 0 0 -145
0 -145 40 0 39 0 3 113 3 112 34 3 c20 2 37 -2 42 -10 5 -7 9 -59 9 -115 l0
-103 40 0 40 0 0 103 c0 109 7 127 47 127 34 0 43 -29 43 -134 l0 -96 41 0 41
0 -4 120 c-3 113 -4 121 -29 145 -33 34 -98 37 -139 7 -27 -20 -28 -20 -45 -3
-24 27 -61 31 -100 11z"/>
<path d="M2935 860 c-47 -24 -45 -24 -45 -5 0 10 -11 15 -35 15 l-35 0 0 -190
0 -190 40 0 40 0 0 55 c0 52 1 55 19 45 32 -17 86 -12 115 11 38 30 56 71 56
129 0 72 -22 118 -64 135 -45 19 -44 19 -91 -5z m65 -80 c14 -34 8 -103 -10
-125 -15 -18 -61 -20 -78 -3 -16 16 -16 130 0 146 7 7 26 12 44 12 26 0 34 -6
44 -30z"/>
<path d="M3195 871 c-33 -8 -75 -32 -75 -43 0 -16 34 -39 49 -32 40 17 84 17
98 -2 19 -27 16 -44 -9 -44 -40 0 -97 -20 -125 -44 -33 -29 -35 -82 -2 -108
27 -22 80 -23 121 -2 28 15 32 15 40 0 5 -9 22 -16 40 -16 l30 0 -4 113 c-4
113 -12 142 -48 165 -25 15 -80 22 -115 13z m85 -190 c0 -22 -35 -51 -61 -51
-9 0 -23 7 -30 16 -11 14 -10 19 10 35 32 26 81 26 81 0z"/>
<path d="M3525 872 c-10 -2 -29 -11 -41 -18 -19 -13 -22 -13 -27 1 -4 9 -19
15 -37 15 l-30 0 0 -145 0 -145 40 0 40 0 0 103 c0 112 6 127 52 127 39 0 48
-25 48 -134 l0 -96 41 0 41 0 -4 120 c-3 112 -5 121 -28 144 -27 25 -63 36
-95 28z"/>
<path d="M3699 738 l58 -133 -29 -58 -29 -58 43 3 42 3 77 180 c43 99 78 183
78 188 1 4 -16 7 -38 7 -38 0 -39 -1 -61 -62 -13 -35 -28 -74 -33 -88 -8 -23
-12 -17 -42 60 l-32 85 -46 3 -46 3 58 -133z"/>
<path d="M4273 855 c-96 -41 -98 -211 -4 -260 97 -50 201 17 201 130 0 112
-95 175 -197 130z m104 -40 c47 -33 50 -140 6 -175 -34 -26 -66 -25 -99 3 -23
21 -27 31 -27 82 0 51 4 61 27 82 31 27 62 29 93 8z"/>
<path d="M4544 861 c-53 -23 -69 -89 -33 -135 19 -24 19 -27 5 -42 -19 -18
-21 -45 -4 -62 10 -10 7 -16 -10 -28 -14 -10 -22 -26 -22 -44 0 -39 36 -62
104 -68 70 -6 121 16 142 62 16 32 16 37 1 60 -17 25 -26 28 -129 41 -39 5
-48 10 -48 26 0 16 7 19 40 19 23 0 54 7 69 15 32 16 56 64 47 93 -5 14 -1 21
14 25 32 8 25 37 -9 37 -15 0 -55 2 -87 5 -32 3 -69 1 -80 -4z m106 -52 c28
-52 -24 -102 -78 -77 -30 15 -39 46 -22 77 15 30 85 30 100 0z m7 -215 c31 -8
36 -31 13 -54 -23 -23 -108 -28 -128 -8 -13 13 -16 50 -5 61 8 9 90 9 120 1z"/>
<path d="M4803 850 c-42 -25 -63 -68 -63 -128 0 -55 29 -108 70 -129 34 -17
95 -16 131 2 93 48 93 212 0 260 -41 21 -99 19 -138 -5z m114 -35 c31 -21 45
-81 32 -128 -17 -63 -73 -85 -121 -47 -65 50 -30 190 47 190 11 0 30 -7 42
-15z"/>
</g>
</svg>
